# Blender 4.0.2
# www.blender.org
mtllib World.mtl
o World
v -15.000001 -15.000001 0.000001
v -15.000001 -15.000000 7.050001
v -15.000001 15.000001 -0.000001
v -15.000001 15.000002 7.049999
v -14.850000 -14.850000 0.050001
v -14.850000 -14.849999 7.050001
v -14.850000 14.850000 0.049999
v -14.850000 14.850001 7.049999
v -13.650001 0.000000 0.050000
v -13.650001 0.000001 7.050000
v -13.650001 0.150000 0.050000
v -13.650001 0.150001 7.050000
v -5.150000 -14.850000 0.050001
v -5.150000 -14.849999 7.050001
v -5.150000 -9.850000 0.050001
v -5.150000 -9.850000 4.550001
v -5.150000 -4.850000 0.050000
v -5.150000 -4.850000 4.550001
v -5.150000 0.000000 0.050000
v -5.150000 0.000001 7.050000
v -5.150000 0.150000 0.050000
v -5.150000 0.150001 7.050000
v -5.150000 4.850000 0.050000
v -5.150000 4.850001 4.550000
v -5.150000 9.850000 0.049999
v -5.150000 9.850000 4.549999
v -5.150000 14.850000 0.049999
v -5.150000 14.850001 7.049999
v -5.000000 -15.000001 0.050001
v -5.000000 -15.000000 7.050001
v -5.000000 -9.850000 0.050001
v -5.000000 -9.850000 4.550001
v -5.000000 -4.850000 0.050000
v -5.000000 -4.850000 4.550001
v -5.000000 4.850000 0.050000
v -5.000000 4.850001 4.550000
v -5.000000 9.850000 0.049999
v -5.000000 9.850000 4.549999
v -5.000000 15.000001 0.049999
v -5.000000 15.000002 7.049999
v 5.000000 -15.000001 0.050001
v 5.000000 -15.000000 7.050001
v 5.000000 -9.850000 0.050001
v 5.000000 -9.850000 4.550001
v 5.000000 -4.850000 0.050000
v 5.000000 -4.850000 4.550001
v 5.000000 4.850000 0.050000
v 5.000000 4.850001 4.550000
v 5.000000 9.849948 4.549999
v 5.000000 9.849949 7.049999
v 5.000000 9.850000 0.049999
v 5.000000 9.850001 7.049999
v 5.000000 15.000001 0.049999
v 5.000000 15.000002 7.049999
v 5.150000 -14.850000 0.050001
v 5.150000 -14.849999 7.050001
v 5.150000 -9.850000 0.050001
v 5.150000 -9.850000 4.550001
v 5.150000 -4.850000 0.050000
v 5.150000 -4.850000 4.550001
v 5.150000 4.850000 0.050000
v 5.150000 4.850001 4.550000
v 5.150000 9.849948 4.549999
v 5.150000 9.849949 7.049999
v 5.150000 9.850000 0.049999
v 5.150000 9.850001 7.049999
v 5.150000 14.850000 0.049999
v 5.150000 14.850001 7.049999
v 14.850000 -14.850000 0.050001
v 14.850000 -14.849999 7.050001
v 14.850000 14.850000 0.049999
v 14.850000 14.850001 7.049999
v 15.000001 -15.000001 0.000001
v 15.000001 -15.000000 7.050001
v 15.000001 15.000001 -0.000001
v 15.000001 15.000002 7.049999
vn -0.0000 -0.0000 1.0000
vn 1.0000 -0.0000 -0.0000
vn -1.0000 -0.0000 -0.0000
vn -0.0000 -1.0000 -0.0000
vn -0.0000 1.0000 -0.0000
vn -0.0000 -0.0000 -1.0000
vt -485.000000 984.994690
vt -500.000000 984.994690
vt -485.000000 -1485.000000
vt -500.000000 -1500.000000
vt 500.000000 -1500.000000
vt 500.000000 1500.000000
vt 485.000000 1485.000000
vt 485.000000 -1485.000000
vt -500.000000 1500.000000
vt -485.000000 1485.000000
vt -500.000000 985.000000
vt -485.000000 985.000000
vt 515.000000 0.000000
vt 515.000000 450.000000
vt 0.000000 0.000000
vt 0.000000 700.000000
vt 1015.000000 450.000000
vt 1985.000000 450.000000
vt 1985.000000 0.000000
vt 1015.000000 0.000000
vt 3000.000000 700.000000
vt 2485.000000 450.000000
vt 3000.000000 0.000000
vt 2485.000000 0.000000
vt 500.000000 0.000000
vt 500.000000 450.000000
vt 1000.000000 450.000000
vt 2469.994629 700.000000
vt 1970.000000 450.000000
vt 2469.994629 450.000000
vt 1000.000000 0.000000
vt 1970.000000 0.000000
vt 0.000000 450.000000
vt 515.000000 700.000000
vt -500.000000 450.000000
vt -1969.994751 700.000000
vt -1470.000000 450.000000
vt -1969.994751 450.000000
vt -1470.000000 0.000000
vt -500.000000 0.000000
vt 485.000000 15.000000
vt 485.000000 0.000000
vt -365.000000 15.000000
vt -365.000000 0.000000
vt 15.000000 450.000000
vt 15.000000 0.000000
vt -1000.000000 0.000000
vt -1000.000000 700.000000
vt -1970.000000 450.000000
vt -2470.000000 700.000000
vt -2470.000000 0.000000
vt -1970.000000 0.000000
vt 970.000000 0.000000
vt 970.000000 700.000000
vt 2970.000000 0.000000
vt 2970.000000 700.000000
vt 500.000000 700.000000
vt 15.000000 700.000000
vt 7.500000 250.000000
vt -7.500000 250.000000
vt 7.500000 -250.000000
vt -7.500000 -250.000000
vt 7.500000 249.997345
vt -7.500000 249.997345
vt 7.500000 -249.997345
vt -7.500000 -249.997345
vt 0.000000 250.000000
vt 15.000000 250.000000
vt -1500.000000 -1500.000000
vt 1500.000000 -1500.000000
vt -1500.000000 1500.000000
vt 1500.000000 1500.000000
vt -985.000000 0.000000
vt -985.000000 700.000000
vt 0.000000 705.000000
vt 1000.000000 5.000000
vt 2000.000000 5.000000
vt 3000.000000 705.000000
vt 2000.000000 705.000000
vt 1000.000000 705.000000
vt 850.000000 700.000000
vt 850.000000 0.000000
vt -515.000000 0.000000
vt -1365.000000 0.000000
vt -515.000000 -485.000000
vt -515.000000 -985.000000
vt -500.000000 -985.000000
vt -1365.000000 15.000000
vt -1485.000000 1485.000000
vt -1485.000000 -1485.000000
vt -515.000000 -1485.000000
vt -515.000000 15.000000
vt -515.000000 485.000000
vt -515.000000 985.000000
vt -515.000000 1485.000000
vt -500.000000 485.000000
vt 500.000000 485.000000
vt 500.000000 985.000000
vt 515.000000 485.000000
vt 515.000000 985.000000
vt 1485.000000 1485.000000
vt 515.000000 1485.000000
vt 500.000000 -485.000000
vt -500.000000 -485.000000
vt 500.000000 -985.000000
vt 1485.000000 -1485.000000
vt 515.000000 -485.000000
vt 515.000000 -985.000000
vt 515.000000 -1485.000000
s 0
usemtl 191,191,191
f 64/1/1 50/2/1 56/3/1
f 56/3/1 50/2/1 42/4/1
f 56/3/1 42/4/1 74/5/1
f 76/6/1 72/7/1 74/5/1
f 74/5/1 72/7/1 70/8/1
f 74/5/1 70/8/1 56/3/1
f 76/6/1 54/9/1 72/7/1
f 72/7/1 54/9/1 68/10/1
f 68/10/1 54/9/1 52/11/1
f 68/10/1 52/11/1 66/12/1
f 31/13/2 32/14/2 29/15/2
f 29/15/2 32/14/2 30/16/2
f 30/16/2 32/14/2 34/17/2
f 30/16/2 34/17/2 36/18/2
f 36/18/2 34/17/2 35/19/2
f 35/19/2 34/17/2 33/20/2
f 30/16/2 36/18/2 40/21/2
f 40/21/2 36/18/2 38/22/2
f 40/21/2 38/22/2 39/23/2
f 39/23/2 38/22/2 37/24/2
f 57/25/2 58/26/2 55/15/2
f 55/15/2 58/26/2 56/16/2
f 56/16/2 58/26/2 60/27/2
f 56/16/2 60/27/2 64/28/2
f 64/28/2 60/27/2 62/29/2
f 64/28/2 62/29/2 63/30/2
f 59/31/2 61/32/2 60/27/2
f 60/27/2 61/32/2 62/29/2
f 43/15/3 41/13/3 44/33/3
f 44/33/3 41/13/3 42/34/3
f 44/33/3 42/34/3 46/35/3
f 46/35/3 42/34/3 50/36/3
f 46/35/3 50/36/3 48/37/3
f 48/37/3 50/36/3 49/38/3
f 47/39/3 45/40/3 48/37/3
f 48/37/3 45/40/3 46/35/3
f 22/41/1 40/6/1 28/7/1
f 28/7/1 40/6/1 4/9/1
f 28/7/1 4/9/1 8/10/1
f 8/10/1 4/9/1 2/4/1
f 8/10/1 2/4/1 6/3/1
f 6/3/1 2/4/1 30/5/1
f 6/3/1 30/5/1 14/8/1
f 14/8/1 30/5/1 20/42/1
f 20/42/1 30/5/1 40/6/1
f 20/42/1 40/6/1 22/41/1
f 22/41/1 12/43/1 20/42/1
f 20/42/1 12/43/1 10/44/1
f 60/45/4 46/33/4 59/46/4
f 59/46/4 46/33/4 45/15/4
f 38/45/4 26/33/4 37/46/4
f 37/46/4 26/33/4 25/15/4
f 34/45/4 18/33/4 33/46/4
f 33/46/4 18/33/4 17/15/4
f 23/39/3 21/47/3 24/37/3
f 24/37/3 21/47/3 22/48/3
f 24/37/3 22/48/3 26/49/3
f 26/49/3 22/48/3 28/50/3
f 26/49/3 28/50/3 27/51/3
f 27/51/3 25/52/3 26/49/3
f 44/45/5 58/33/5 43/46/5
f 43/46/5 58/33/5 57/15/5
f 69/15/5 55/53/5 70/16/5
f 70/16/5 55/53/5 56/54/5
f 71/15/3 69/55/3 72/16/3
f 72/16/3 69/55/3 70/56/3
f 67/15/4 71/53/4 68/16/4
f 68/16/4 71/53/4 72/54/4
f 65/15/2 67/25/2 66/16/2
f 66/16/2 67/25/2 68/57/2
f 51/15/4 65/46/4 52/16/4
f 52/16/4 65/46/4 66/58/4
f 53/15/3 51/13/3 54/16/3
f 54/16/3 51/13/3 52/34/3
f 24/45/5 36/33/5 23/46/5
f 23/46/5 36/33/5 35/15/5
f 48/45/5 62/33/5 47/46/5
f 47/46/5 62/33/5 61/15/5
f 16/45/5 32/33/5 15/46/5
f 15/46/5 32/33/5 31/15/5
f 18/59/6 34/60/6 16/61/6
f 16/61/6 34/60/6 32/62/6
f 13/15/5 5/53/5 14/16/5
f 14/16/5 5/53/5 6/54/5
f 49/63/6 63/64/6 48/65/6
f 48/65/6 63/64/6 62/66/6
f 26/59/6 38/60/6 24/61/6
f 24/61/6 38/60/6 36/62/6
f 46/59/6 60/60/6 44/61/6
f 44/61/6 60/60/6 58/62/6
f 50/15/5 64/46/5 49/67/5
f 49/67/5 64/46/5 63/68/5
f 73/69/6 1/70/6 75/71/6
f 75/71/6 1/70/6 3/72/6
f 19/73/3 18/35/3 20/74/3
f 20/74/3 18/35/3 16/33/3
f 20/74/3 16/33/3 14/57/3
f 14/57/3 16/33/3 13/25/3
f 13/25/3 16/33/3 15/15/3
f 19/73/3 17/40/3 18/35/3
f 7/15/4 27/53/4 8/16/4
f 8/16/4 27/53/4 28/54/4
f 5/15/2 7/55/2 6/16/2
f 6/16/2 7/55/2 8/56/2
f 2/75/4 1/15/4 29/76/4
f 29/76/4 1/15/4 73/23/4
f 29/76/4 73/23/4 41/77/4
f 41/77/4 73/23/4 74/78/4
f 41/77/4 74/78/4 42/79/4
f 29/76/4 30/80/4 2/75/4
f 3/15/3 1/23/3 4/75/3
f 4/75/3 1/23/3 2/78/3
f 76/75/5 75/15/5 53/76/5
f 53/76/5 75/15/5 3/23/5
f 53/76/5 3/23/5 39/77/5
f 39/77/5 3/23/5 4/78/5
f 39/77/5 4/78/5 40/79/5
f 53/76/5 54/80/5 76/75/5
f 73/15/2 75/23/2 74/75/2
f 74/75/2 75/23/2 76/78/2
f 10/58/3 12/16/3 9/46/3
f 9/46/3 12/16/3 11/15/3
f 12/81/5 22/16/5 11/82/5
f 11/82/5 22/16/5 21/15/5
f 20/81/4 10/16/4 19/82/4
f 19/82/4 10/16/4 9/15/4
f 19/83/1 9/84/1 17/85/1
f 17/85/1 9/84/1 15/86/1
f 17/85/1 15/86/1 31/87/1
f 11/88/1 7/89/1 9/84/1
f 9/84/1 7/89/1 5/90/1
f 9/84/1 5/90/1 15/86/1
f 15/86/1 5/90/1 13/91/1
f 21/92/1 23/93/1 11/88/1
f 11/88/1 23/93/1 25/94/1
f 11/88/1 25/94/1 7/89/1
f 7/89/1 25/94/1 27/95/1
f 23/93/1 35/96/1 25/94/1
f 25/94/1 35/96/1 37/11/1
f 37/11/1 35/96/1 47/97/1
f 37/11/1 47/97/1 51/98/1
f 51/98/1 47/97/1 61/99/1
f 51/98/1 61/99/1 65/100/1
f 65/100/1 61/99/1 71/101/1
f 65/100/1 71/101/1 67/102/1
f 47/97/1 35/96/1 45/103/1
f 45/103/1 35/96/1 33/104/1
f 45/103/1 33/104/1 43/105/1
f 43/105/1 33/104/1 31/87/1
f 43/105/1 31/87/1 41/5/1
f 41/5/1 31/87/1 29/4/1
f 33/104/1 17/85/1 31/87/1
f 71/101/1 61/99/1 69/106/1
f 69/106/1 61/99/1 59/107/1
f 69/106/1 59/107/1 57/108/1
f 57/108/1 59/107/1 45/103/1
f 57/108/1 45/103/1 43/105/1
f 53/6/1 39/9/1 51/98/1
f 51/98/1 39/9/1 37/11/1
f 57/108/1 55/109/1 69/106/1
f 30/15/6 2/15/6 8/15/6 28/15/6
f 54/15/1 42/15/1 74/15/1 76/15/1
